<?xml version="1.0" encoding="UTF-8"?>
<svg width="15px" height="12px" viewBox="0 0 15 12" version="1.1" xmlns="http://www.w3.org/2000/svg" xmlns:xlink="http://www.w3.org/1999/xlink">
    <!-- Generator: Sketch 63.1 (92452) - https://sketch.com -->
    <title>Path</title>
    <desc>Created with Sketch.</desc>
    <g id="Page-1" stroke="none" stroke-width="1" fill="none" fill-rule="evenodd">
        <g id="Detail" transform="translate(-726.000000, -35.000000)" fill="#F2E0DA" fill-rule="nonzero">
            <g id="Group-2" transform="translate(726.000000, 33.000000)">
                <g id="Path-2" transform="translate(0.000000, 2.000000)">
                    <path d="M14.5587841,6.00839495 C14.5678278,5.99666794 14.5782776,5.98602799 14.5865543,5.97364216 C14.6049613,5.9461364 14.619853,5.91639065 14.6341376,5.88615079 C14.6383559,5.87715789 14.6440441,5.86908733 14.6478789,5.86009443 C14.6637933,5.82198166 14.6759687,5.78192537 14.6846928,5.74058438 C14.6851722,5.73834439 14.6860989,5.73640087 14.6865783,5.73416088 C14.6953343,5.69090931 14.7,5.64601068 14.7,5.60002501 C14.7,5.55403933 14.6953343,5.50914071 14.6865783,5.46588913 C14.6860989,5.46364914 14.6851722,5.46170562 14.6846928,5.45946563 C14.6759687,5.41812464 14.6637933,5.37806835 14.6478789,5.33995558 C14.6440441,5.33096268 14.6383559,5.32289213 14.6341376,5.31389922 C14.619853,5.28365936 14.6049613,5.25391361 14.5865543,5.22640785 C14.5782776,5.21402202 14.5678278,5.20341501 14.5587841,5.19165506 C14.5413998,5.1691234 14.5242072,5.14678938 14.5042343,5.12682712 C14.5019015,5.12458713 14.5002398,5.12168832 14.497907,5.11941539 L9.38486348,0.178260979 C9.12754957,-0.0707402617 8.72278826,-0.0572014987 8.48154848,0.208336139 C8.24014891,0.473742013 8.25312326,0.890643681 8.51072478,1.13948022 L12.4446365,4.94120442 L0.639130435,4.94120442 C0.286170652,4.94120442 0,5.23619134 0,5.60002501 C0,5.96385867 0.286170652,6.25884559 0.639130435,6.25884559 L12.4446365,6.25884559 L8.51075674,10.0605698 C8.25312326,10.3094063 8.24018087,10.726308 8.48158043,10.9917139 C8.6073613,11.130198 8.77743391,11.2 8.94798587,11.2 C9.10463674,11.2 9.26160717,11.1409697 9.38489543,11.021789 L14.4979389,6.08063462 C14.5002717,6.07839463 14.5019335,6.07549582 14.5042663,6.07322289 C14.5242391,6.05329357 14.5413998,6.03092661 14.5587841,6.00839495 Z" id="Path" transform="translate(7.350000, 5.600000) rotate(-180.000000) translate(-7.350000, -5.600000) "></path>
                </g>
            </g>
        </g>
    </g>
</svg>