<?xml version="1.0" encoding="UTF-8"?>
<svg width="25px" height="36px" viewBox="0 0 25 36" version="1.1" xmlns="http://www.w3.org/2000/svg" xmlns:xlink="http://www.w3.org/1999/xlink">
    <!-- Generator: Sketch 63.1 (92452) - https://sketch.com -->
    <title>noun_flowers_3424605</title>
    <desc>Created with Sketch.</desc>
    <g id="Page-1" stroke="none" stroke-width="1" fill="none" fill-rule="evenodd" opacity="0.699999988">
        <g id="Detail" transform="translate(-996.000000, -172.000000)" fill="#000000" fill-rule="nonzero">
            <g id="Group-3" transform="translate(996.000000, 172.000000)">
                <g id="Group-4">
                    <g id="noun_flowers_3424605">
                        <path d="M21.1674475,2.72189347 C18.3639711,0.220879865 14.3934598,-0.636621736 10.8024018,0.484061758 C10.7646922,0.495060405 10.7285538,0.511951183 10.6955578,0.534341284 C10.532935,0.642756512 10.4744065,0.854087644 10.5588604,1.03045879 C10.5631813,1.0394934 10.5675022,1.04813519 10.5726087,1.05638417 L10.7792261,1.49907969 C11.3668681,2.75488941 11.3440851,4.18471342 10.7167695,5.42127551 L8.64234624,9.5159144 C7.72553052,11.3216564 8.11676808,13.5151007 9.58351612,14.8989661 C5.92764466,19.0305291 3.83397378,24.7714296 3.83397378,30.7236613 L3.83397378,35.1466883 L4.61959137,35.1466883 L4.61959137,30.7236613 C4.61959137,24.9639059 6.639807,19.4146961 10.1664444,15.4257227 L10.2897863,15.536102 C11.1488592,16.302472 12.2369395,16.6937095 13.330912,16.6937095 C14.2021619,16.6937095 15.0769471,16.4454544 15.8429243,15.9406951 L19.6743813,13.4137561 C20.8331672,12.6505286 22.2515998,12.4659085 23.5655452,12.9070327 L24.0545922,13.0704412 C24.0793391,13.0786902 24.1127279,13.0845823 24.139046,13.087332 C24.3382001,13.1101149 24.5271411,12.9710606 24.5660292,12.7707281 C25.2742635,9.07479012 23.9721023,5.22447831 21.1674475,2.72189347 Z M11.4175404,5.77637466 C11.9077658,4.81045784 12.0766735,3.74476757 11.9372264,2.70500269 C14.1617026,5.98456333 13.7590736,9.52337777 13.5925227,10.4920443 C12.6175713,10.6165646 11.6897569,10.9257052 10.8487533,11.398647 C10.773334,10.389914 10.4971894,9.40474951 10.0352462,8.50521737 L11.4175404,5.77637466 Z M9.34311714,9.87101355 L9.58312331,9.39728614 C9.90444091,10.1860462 10.0749199,11.0321564 10.0839545,11.8884795 C9.74063964,12.14027 9.41892923,12.4242707 9.11882331,12.7345897 C8.82225267,11.8099178 8.88117399,10.7811515 9.34311714,9.87101355 Z M11.7852094,15.5761685 C11.4375736,15.4206162 11.1083999,15.2132132 10.8130077,14.9496385 L10.1974763,14.4008846 C9.90247686,14.1373099 9.65893541,13.8340615 9.46488786,13.5068518 C9.47313685,13.4974244 9.48060021,13.4879969 9.48924201,13.4785695 C10.5474689,12.2918942 11.9690439,11.5235602 13.5288877,11.2863036 C13.470752,12.8630381 12.8689689,14.3627821 11.810742,15.5490647 C11.8021002,15.5580993 11.7934584,15.5667411 11.7852094,15.5761685 Z M15.4104418,15.2847044 C14.5588323,15.8468138 13.5434216,16.0220065 12.5908603,15.8326726 C12.8650408,15.499178 13.1101535,15.1480069 13.3214846,14.7783738 C14.1730941,14.6907775 15.0333454,14.7634471 15.8531373,14.9928474 L15.4104418,15.2847044 Z M19.2422916,12.7577654 L16.6886416,14.4417367 C15.742758,14.0854591 14.732061,13.9220507 13.721364,13.96251 C14.0957108,13.072798 14.2972217,12.1163086 14.3101844,11.1338938 C15.2509614,10.8593205 18.707286,10.0623114 22.2119261,11.8928004 C21.1709828,11.8766953 20.1402525,12.1661953 19.2422916,12.7577654 Z M16.2518382,9.96921575 C16.9969965,9.5115935 17.6981602,9.04965036 17.9090985,8.81317946 C18.1891712,8.49971804 18.3297968,8.0959106 18.3062282,7.67560519 C18.2818741,7.2560854 18.0964683,6.87034716 17.7826141,6.5906673 C17.4687599,6.31098743 17.0677021,6.1711475 16.6450398,6.1935376 C16.22552,6.21789175 15.8397818,6.4032975 15.5601019,6.71715173 C15.3362009,6.96776374 14.9233589,7.79580468 14.5321213,8.63995078 C14.5258364,6.79257102 14.0933539,4.10968694 12.1187041,1.62399288 C14.5572611,2.41275295 16.778202,3.67877569 18.7273193,5.41774023 C20.6575817,7.1402068 22.2068196,9.25823183 23.2740811,11.5950514 C20.6850783,9.97982159 18.0780063,9.80109359 16.2518382,9.96921575 Z M14.8220142,9.90950881 C15.3507349,8.71851254 15.9423049,7.47016619 16.1465655,7.24115866 C16.2867982,7.08403514 16.4800601,6.99054665 16.6902129,6.97876239 C16.7055324,6.97797677 16.7208519,6.97758396 16.7361715,6.97758396 C16.9294334,6.97758396 17.1140535,7.04750393 17.2593928,7.17752364 C17.4165163,7.31775638 17.5100048,7.51101831 17.5217891,7.72117101 C17.5335733,7.93132372 17.4632606,8.13362025 17.3230278,8.29035096 C17.1187672,8.51975129 15.9454474,9.24880442 14.8220142,9.90950881 Z M23.95639,11.1979217 C22.8451339,8.79078936 21.242474,6.60912931 19.2509334,4.83245513 C17.2456445,3.04321106 14.9646038,1.73240811 12.4608405,0.907902449 C15.3801955,0.454601099 18.411501,1.31681641 20.6442262,3.308357 C22.8844148,5.30696815 24.0860169,8.2341793 23.95639,11.1979217 Z" id="Shape"></path>
                        <path d="M1.72537616,13.2153876 C-1.45205419,21.5523615 0.878087588,32.8122257 1.41819968,35.1462955 L2.22660018,35.1462955 C1.8208287,33.4034029 -0.695504448,21.7413026 2.47014164,13.4656068 C2.65868986,13.5025309 2.84684527,13.5206001 3.03303664,13.5206001 C4.3175214,13.5206001 5.50812486,12.66192 6.09419559,11.2006713 C7.33861385,8.09551779 7.00472638,1.82982469 6.98979964,1.56467876 C6.98155066,1.41580422 6.88413407,1.28185642 6.74704381,1.22332791 C6.60366859,1.16126412 6.43790328,1.19033197 6.32398873,1.29756877 C6.130334,1.47904644 1.56118208,5.77951713 0.316763818,8.88467066 C-0.0634750959,9.83212548 -0.101970358,10.7638679 0.204420503,11.579339 C0.478208233,12.3079993 1.01596347,12.8807145 1.72537616,13.2153876 Z M6.2466054,2.96347088 C6.27724449,4.99114988 6.20850295,8.80296644 5.36474965,10.9084216 C5.29247283,11.088328 5.20959018,11.2560574 5.11767292,11.4120025 C3.33589222,9.09010966 5.16245312,4.96875978 6.2466054,2.96347088 Z M1.04620975,9.17731322 C1.71909122,7.49805562 3.50047911,5.37335284 4.91616201,3.84768348 C3.80765559,6.24185309 2.71289747,9.81719875 4.62469788,12.0514952 C3.96085102,12.7039506 3.07271033,12.9192098 2.20460289,12.5719668 L2.19910357,12.56961 C2.19635391,12.5684316 2.19321144,12.5672531 2.19085458,12.5660747 C1.60164139,12.3296038 1.15737464,11.881409 0.939758568,11.3028016 C0.703680482,10.6747003 0.7402117,9.93936228 1.04620975,9.17731322 Z" id="Shape"></path>
                        <path d="M25.0330789,18.2841923 C24.983585,18.145138 24.860243,18.0457574 24.7137253,18.0265098 C24.4505434,17.9927282 18.2249168,17.2071106 15.0380591,18.223307 C14.0654645,18.5336259 13.3222702,19.0973065 12.8882165,19.8522851 C12.4757673,20.5703395 12.3865997,21.4074151 12.6332836,22.2134587 C11.2403836,22.8883042 6.37583949,25.9074326 6.16765083,35.1462955 L6.95326842,35.1462955 C7.157529,26.3556275 11.705862,23.53801 12.9557796,22.929942 C13.2594208,23.4264523 13.6958314,23.8220107 14.2335866,24.0702659 C14.6617482,24.2674559 15.1315476,24.3668365 15.6268794,24.3668365 C16.0460064,24.3668365 16.4835954,24.2953453 16.9290406,24.1535414 C20.1158984,23.1365594 24.7361154,18.8906891 24.9313414,18.7103899 C25.04722,18.6035459 25.0861081,18.4322813 25.0330789,18.2841923 Z M15.3342369,23.5639354 C15.0612348,23.5352603 14.801981,23.4669116 14.5627604,23.3565323 C14.006936,23.1000282 13.5940939,22.6306217 13.3917974,22.0123406 L13.3921902,22.0123406 C13.1989283,21.4074151 13.2621705,20.7793138 13.5697398,20.2435226 C13.9044129,19.66138 14.4944117,19.2210413 15.2768868,18.9720005 C17.0005318,18.4220682 19.7737619,18.4432799 21.8521132,18.564265 C19.2972848,19.2336112 15.8382106,20.6657921 15.3342369,23.5639354 Z M16.6909985,23.404455 C16.5059855,23.4633763 16.3241151,23.5061925 16.1457799,23.5356531 C16.8045202,20.6846469 21.1407365,19.4692965 23.3785682,19.0281722 C21.8336512,20.3429032 18.851054,22.7154684 16.6909985,23.404455 Z" id="Shape"></path>
                    </g>
                </g>
            </g>
        </g>
    </g>
</svg>