<?xml version="1.0" encoding="UTF-8"?>
<svg width="40px" height="43px" viewBox="0 0 40 43" version="1.1" xmlns="http://www.w3.org/2000/svg" xmlns:xlink="http://www.w3.org/1999/xlink">
    <!-- Generator: Sketch 63.1 (92452) - https://sketch.com -->
    <title>noun_flowers_3424603</title>
    <desc>Created with Sketch.</desc>
    <g id="Page-1" stroke="none" stroke-width="1" fill="none" fill-rule="evenodd">
        <g id="Current-design" transform="translate(-179.000000, -3517.000000)" fill="#979A84" fill-rule="nonzero">
            <g id="Group-28" transform="translate(89.000000, 3031.000000)">
                <g id="Group-21" transform="translate(90.000000, 486.000000)">
                    <g id="Group-5">
                        <g id="noun_flowers_3424603">
                            <path d="M39.10414,4.13816 C37.56406,2.73976 35.27924,1.5065 33.78056,0.94392 C32.0597,0.3266 30.22982,0 28.35946,0 C26.49922,0 24.67762,0.32568 22.96274,0.94116 C22.94112,0.94622 22.9195,0.94852 22.8988,0.9568 C22.88638,0.96186 22.87626,0.97106 22.8643,0.97704 C20.99992,1.6606 19.2671,2.69146 17.75554,4.0365 C15.40034,3.8088 12.9398,4.1262 10.6283,4.96754 C8.88122,5.60326 7.2818,6.53108 5.88156,7.69488 C5.86224,7.70776 5.80658,7.75514 5.79738,7.76526 C4.24442,9.07396 2.94308,10.6766 1.97616,12.50786 C1.94074,12.56582 1.84184,12.80778 1.9274,12.98764 C2.0332,13.20982 2.28804,13.2503 2.40764,13.23558 C2.63764,13.202 8.10198,12.4982 11.92504,18.0941 C12.19966,18.49614 12.41908,18.9267 12.57962,19.37704 L12.9513,20.3872 C13.39474,21.60712 14.56314,22.42684 15.8585,22.42684 C16.14462,22.42684 16.4243,22.37624 16.698,22.2985 C17.29094,23.54924 19.88488,27.9036 27.90636,29.99062 L27.90636,33.00408 C27.12482,32.60756 26.18274,32.292 25.08242,32.06062 C17.1603,30.39358 13.30964,27.82632 12.26774,27.03604 C12.65644,26.34604 12.7903,25.56036 12.63896,24.7802 C12.45358,23.8234 11.87076,22.95814 10.95444,22.27826 C7.96352,20.05738 1.12562,18.6415 0.83582,18.58216 C0.6601,18.5449 0.4738,18.62126 0.368,18.76708 C0.26358,18.91014 0.25116,19.10058 0.33534,19.25606 C0.4761,19.51596 3.81018,25.65144 6.80156,27.87232 C7.60518,28.46894 8.4709,28.77898 9.32558,28.77898 C9.44518,28.77898 9.56478,28.77254 9.68346,28.76058 C10.46776,28.68008 11.1757,28.32956 11.71482,27.77526 C12.85976,28.65478 16.7716,31.25194 24.8929,32.96038 C26.13306,33.2212 27.13356,33.5915 27.90636,34.06116 C27.90636,34.06116 27.90636,41.85954 27.90682,41.85954 C27.90682,41.96028 27.93948,42.06148 28.00572,42.14474 C28.09496,42.2579 28.22928,42.31954 28.36636,42.31954 C28.43352,42.31954 28.50206,42.30482 28.566,42.27354 C32.1195,40.5582 34.29668,37.40398 33.9848,34.42456 C33.72904,31.9792 31.85316,30.12126 28.8259,29.28406 L28.8259,18.34434 C30.31584,18.12078 31.46308,16.836 31.46308,15.28488 L31.46308,14.2071 C31.46308,13.72686 31.5238,13.24662 31.64386,12.77926 C33.32378,6.2146 38.69658,5.00756 38.92428,4.95926 C38.94176,4.95558 39.2449,4.87278 39.27756,4.56458 C39.30148,4.34056 39.14416,4.1745 39.10414,4.13816 Z M1.9412,20.20458 C4.14276,21.48798 8.13786,24.27604 7.84254,27.44866 C7.67648,27.35804 7.51134,27.25454 7.34942,27.13402 C5.35486,25.65374 3.10638,22.15912 1.9412,20.20458 Z M11.2861,26.86768 C10.86934,27.42934 10.26674,27.77664 9.58962,27.8461 C9.3081,27.8737 9.02014,27.85438 8.7308,27.78998 C9.22024,24.61 6.20862,21.896 3.78212,20.26254 C5.9915,20.88446 8.82648,21.84402 10.40612,23.01656 C11.13476,23.55752 11.5943,24.2282 11.73552,24.95546 C11.86478,25.62338 11.70654,26.3005 11.28978,26.86262 L11.2861,26.86768 Z M29.02554,13.07504 L27.70718,13.07504 C27.13954,12.07592 26.76372,10.41302 26.76372,8.81912 C26.76372,6.9736 27.06502,5.16534 27.68464,3.28946 C27.87968,2.6979 28.11014,2.11416 28.36636,1.54238 C28.62258,2.1137 28.85304,2.69744 29.04854,3.28946 C29.66816,5.16534 29.969,6.97406 29.969,8.81912 C29.96854,10.41302 29.59272,12.07546 29.02554,13.07504 Z M25.97942,12.55202 C25.1367,9.25934 23.42504,7.2082 21.8017,5.94918 C23.0759,6.486 24.48534,7.34022 25.84556,8.7101 C25.84556,8.74644 25.84326,8.78278 25.84326,8.81958 C25.84326,10.36518 26.1625,11.937 26.6777,13.0755 L26.0889,13.0755 C26.05854,12.89932 26.02404,12.72498 25.97942,12.55202 Z M17.16996,15.94222 C17.18606,16.11978 17.21274,16.29688 17.24448,16.47352 L16.69156,16.67454 C16.78632,15.42886 16.54896,13.84186 16.02042,12.38964 C16.00846,12.35744 15.99512,12.3257 15.98316,12.2935 C16.71134,10.70742 17.67688,9.36514 18.90692,8.2455 C17.79326,9.98614 16.83048,12.52718 17.16996,15.94222 Z M14.48494,17.47724 C13.61002,16.73204 12.68818,15.29776 12.14308,13.8 C11.51242,12.06534 11.17708,10.26306 11.1182,8.2892 C11.09934,7.67004 11.1159,7.04674 11.16052,6.4262 C11.59522,6.87424 12.01566,7.33562 12.3993,7.82276 C13.62382,9.3748 14.52542,10.971 15.15562,12.70428 C15.70026,14.20158 15.916,15.89254 15.72418,17.02644 L14.48494,17.47724 Z M8.43318,12.1164 C8.12498,11.59706 7.8361,11.06254 7.5785,10.51974 C7.33424,10.005 7.1116,9.4783 6.9138,8.94608 C7.4865,9.23128 8.04816,9.54638 8.59142,9.8877 C9.25382,10.30262 9.8946,10.76584 10.50502,11.25942 C10.60346,11.7967 10.72674,12.32386 10.87256,12.84412 C10.02018,12.50188 9.2046,12.26912 8.43318,12.1164 Z M17.83236,4.9657 C17.99934,5.0048 19.0394,5.27252 20.30532,6.05406 C19.32414,6.66448 18.45474,7.36092 17.69206,8.14982 C17.61616,7.77262 17.53198,7.3968 17.43538,7.02512 C17.24678,6.30154 17.00666,5.59176 16.74124,4.89532 C17.10878,4.90636 17.47356,4.9266 17.83236,4.9657 Z M14.77888,9.70462 C14.9293,8.93366 15.12204,8.16684 15.36262,7.42348 C15.55996,6.81306 15.78766,6.21092 16.04342,5.62396 C16.23386,6.1594 16.40176,6.70588 16.54528,7.2565 C16.69708,7.84024 16.81852,8.43502 16.91604,9.0275 C16.39026,9.68162 15.92198,10.38818 15.5158,11.15592 C15.29316,10.66326 15.0489,10.18072 14.77888,9.70462 Z M14.4877,7.14058 C14.33452,7.61254 14.20296,8.09416 14.08428,8.57946 C13.78666,8.1328 13.46742,7.69074 13.12196,7.25328 C12.66564,6.67414 12.16102,6.12766 11.63708,5.60188 C12.84366,5.22698 14.1036,4.99468 15.35296,4.91602 C15.02268,5.63822 14.73196,6.38296 14.4877,7.14058 Z M10.19866,8.31726 C10.21522,8.87432 10.25478,9.41804 10.31412,9.95164 C9.91116,9.65632 9.50084,9.37158 9.0804,9.10846 C8.41432,8.68986 7.7211,8.30944 7.01316,7.9718 C8.00722,7.22062 9.09512,6.58904 10.26122,6.10006 C10.19728,6.83698 10.17658,7.57988 10.19866,8.31726 Z M18.98972,4.19934 C20.09648,3.3166 21.31226,2.6013 22.60256,2.06678 C22.5929,2.79726 22.60992,3.53188 22.67938,4.26098 C22.71526,4.64048 22.76402,5.02044 22.82106,5.39902 C21.33342,4.67222 19.98102,4.36172 18.98972,4.19934 Z M29.92162,3.00104 C29.6907,2.30092 29.417,1.61046 29.10558,0.93932 C30.37518,1.00142 31.61902,1.22406 32.8141,1.5916 C32.2621,2.1528 31.72896,2.73792 31.2432,3.36214 C30.93822,3.75406 30.6498,4.16162 30.37242,4.57654 C30.245,4.0549 30.09642,3.5305 29.92162,3.00104 Z M23.85192,5.9662 C23.74014,5.3751 23.65136,4.77434 23.59478,4.1745 C23.54142,3.60824 23.51244,3.03738 23.5083,2.46928 C23.94944,2.93388 24.36942,3.42148 24.76318,3.92794 C25.24388,4.54434 25.68732,5.19846 26.09212,5.87098 C26.00104,6.40964 25.93618,6.94784 25.8957,7.48696 C25.21214,6.87286 24.52536,6.37468 23.85192,5.9662 Z M26.8111,3.00104 C26.63584,3.5305 26.48726,4.0549 26.3603,4.57654 C26.08246,4.16116 25.79404,3.7536 25.48906,3.36214 C25.00468,2.73976 24.472,2.15372 23.91908,1.59206 C25.11462,1.22314 26.35892,1.00004 27.6276,0.9384 C27.31526,1.61046 27.04156,2.30138 26.8111,3.00104 Z M30.64014,5.87144 C31.04494,5.19938 31.48838,4.5448 31.96908,3.92748 C32.3633,3.42056 32.78374,2.93296 33.22442,2.46882 C33.22028,3.03784 33.19176,3.6087 33.13794,4.17496 C33.0809,4.77664 32.99212,5.3774 32.8808,5.9662 C32.20736,6.37422 31.52012,6.87286 30.83702,7.48696 C30.79562,6.9483 30.73122,6.4101 30.64014,5.87144 Z M34.05288,4.26144 C34.1228,3.53188 34.13982,2.79634 34.13016,2.06448 C35.4246,2.599 36.6436,3.31476 37.75128,4.19796 C36.75906,4.35988 35.40298,4.66992 33.9112,5.39948 C33.96824,5.02182 34.017,4.64186 34.05288,4.26144 Z M3.25864,12.11732 C3.99418,10.9135 4.88888,9.82882 5.91422,8.8872 C6.15434,9.57444 6.4331,10.2534 6.74728,10.91396 C6.91058,11.2585 7.08676,11.59936 7.2703,11.93608 C5.62258,11.7622 4.24534,11.93194 3.25864,12.11732 Z M6.509,12.8018 C7.88762,12.87172 9.50038,13.19188 11.24286,14.0093 C11.25528,14.04426 11.26632,14.08014 11.27874,14.1151 C11.80728,15.56778 12.64494,16.93582 13.51802,17.8296 L12.96556,18.03062 C12.87724,17.87606 12.78524,17.7238 12.68404,17.57568 C10.76998,14.7729 8.464,13.43062 6.509,12.8018 Z M13.81472,20.07164 L13.44442,19.0647 C13.4205,18.99708 13.39198,18.93084 13.3653,18.86368 L17.47172,17.3696 C17.4938,17.43722 17.51404,17.5053 17.53888,17.57246 L17.90688,18.58492 C18.3172,19.71192 17.733,20.96358 16.60462,21.37436 C16.36496,21.46176 16.1138,21.5063803 15.8585,21.5063803 C14.94816,21.50684 14.12752,20.93046 13.81472,20.07164 Z M17.54348,21.92544 C18.72706,21.15816 19.27354,19.64982 18.77122,18.2712 L18.40322,17.25782 C18.23532,16.7992 18.1286,16.32816 18.08582,15.85528 C17.59868,10.95398 19.9893,8.00262 21.3164,6.76522 C22.78656,7.93454 24.32848,9.81088 25.0884,12.77972 C25.208,13.24616 25.26872,13.7264 25.26872,14.20756 L25.26872,15.28534 C25.26872,16.83646 26.41642,18.12124 27.90636,18.3448 L27.90636,29.04072 C20.53072,27.04846 18.08076,23.00966 17.54348,21.92544 Z M28.82636,34.78566 C29.17826,35.14584 29.44552,35.5419 29.60284,35.98396 C30.13506,37.4831 29.45564,39.1897 28.82636,40.319 L28.82636,34.78566 Z M33.06986,34.52208 C33.29204,36.64452 32.01416,38.89254 29.78776,40.48736 C30.45154,39.20994 31.07346,37.38282 30.46994,35.68036 C30.17646,34.85236 29.62446,34.14764 28.8259,33.56666 L28.8259,30.23994 C31.32554,30.99894 32.8624,32.53856 33.06986,34.52208 Z M30.54354,15.28488 C30.54354,16.48548 29.56696,17.46206 28.36636,17.46206 C27.16576,17.46206 26.18872,16.48548 26.18872,15.28488 L26.18872,14.2071 C26.18872,14.13626 26.18412,14.06542 26.18228,13.99458 L30.5509,13.99458 C30.5486,14.06542 30.544,14.13626 30.544,14.2071 L30.54354,15.28488 L30.54354,15.28488 Z M30.75284,12.55202 C30.70868,12.72498 30.67372,12.89978 30.64336,13.0755 L30.05456,13.0755 C30.56976,11.93746 30.88854,10.36518 30.88854,8.81958 C30.88854,8.78324 30.8867,8.7469 30.88624,8.71056 C32.24646,7.34022 33.65636,6.486 34.93056,5.94872 C33.30722,7.20774 31.59556,9.25888 30.75284,12.55202 Z" id="Shape"></path>
                        </g>
                    </g>
                </g>
            </g>
        </g>
    </g>
</svg>