<?xml version="1.0" encoding="UTF-8"?>
<svg width="27px" height="43px" viewBox="0 0 27 43" version="1.1" xmlns="http://www.w3.org/2000/svg" xmlns:xlink="http://www.w3.org/1999/xlink">
    <!-- Generator: Sketch 63.1 (92452) - https://sketch.com -->
    <title>noun_flowers_3424597</title>
    <desc>Created with Sketch.</desc>
    <g id="Page-1" stroke="none" stroke-width="1" fill="none" fill-rule="evenodd">
        <g id="Current-design" transform="translate(-720.000000, -4127.000000)" fill="#DCA293" fill-rule="nonzero">
            <g id="Group-26" transform="translate(-5.000000, 4094.000000)">
                <g id="Group-6" transform="translate(725.000000, 33.000000)">
                    <g id="noun_flowers_3424597">
                        <path d="M25.9717388,16.9405939 C25.9366883,16.8081042 25.8390475,16.6922369 25.7153693,16.6277031 C25.5796736,16.5568138 25.4189419,16.5519249 25.2782391,16.6115697 C25.0328854,16.7171703 19.2365299,19.2442527 16.9892904,23.7674807 C15.7620213,26.2383405 16.3533737,28.791823 18.3612682,30.0653865 C17.6377252,31.5354845 13.7406074,38.7495736 5.86625632,41.3666121 C9.91108704,38.1022807 12.3365834,33.1825613 12.3365834,27.9802624 L12.3365834,20.9128408 L12.3581145,20.9128408 C14.9954162,20.9128408 17.3082502,19.1753189 17.9827225,16.6878368 L19.4843872,11.1653137 C19.9365389,9.49721445 21.1282568,8.1508061 22.7541005,7.47124633 C22.7541005,7.47124633 23.3995309,7.20235578 23.4345814,7.18084453 C23.6644128,7.03906588 23.7365167,6.74377516 23.5968153,6.51644041 C21.1347662,2.49725993 16.6277693,0 11.8353609,0 C7.043954,0 2.53695707,2.49628215 0.0744072481,6.51546263 C-0.06128836,6.73693067 -0.0297428866,7.08893285 0.323265983,7.22484481 L0.911113378,7.47124633 C2.5354549,8.15031721 3.72767351,9.49672556 4.18082674,11.1658026 L5.68148998,16.6878368 C6.35746441,19.1753189 8.67029841,20.9128408 11.306098,20.9128408 L11.3351398,20.9128408 L11.3351398,27.9802624 C11.3351398,33.7555427 8.16807445,39.1617095 3.06972506,42.0896832 C2.86042335,42.2099507 2.76929198,42.4592855 2.85391397,42.6812425 C2.92752007,42.8753326 3.11679291,43 3.3230903,43 C3.35263288,43 3.38217547,42.9975555 3.41221878,42.9921777 C13.4491873,41.2326557 18.3532566,32.3186893 19.2540551,30.5068559 C19.7753065,30.7024126 20.3145839,30.8050799 20.8538613,30.8050799 C21.4031531,30.8050799 21.950442,30.7038793 22.4761999,30.4995225 C23.6869452,30.0296973 24.6793758,29.0704914 25.3473387,27.7255497 C27.5950789,23.2023217 26.0393363,17.19384 25.9717388,16.9405939 Z M14.7981318,19.2818974 C14.7761001,18.7446051 14.7110062,18.2151352 14.5978431,17.6964209 C15.3334034,16.908816 16.2136723,16.2639675 17.1885777,15.7980535 L17.0148272,16.4370353 C16.6818472,17.6651318 15.8646693,18.6688269 14.7981318,19.2818974 Z M18.5164919,10.915001 L17.5160498,14.5948905 C16.3128153,15.0480933 15.2137309,15.7340087 14.2863941,16.6081474 C13.8878196,15.4719626 13.2674253,14.416445 12.4462415,13.4929281 C13.1096979,12.4550106 15.7299751,8.8347659 20.6295379,7.63209178 C19.6140741,8.48227483 18.8700015,9.61161516 18.5164919,10.915001 Z M11.8328573,11.9866521 C11.3246247,10.4422425 10.8279087,8.7927212 10.8279087,8.41040771 C10.8279087,7.86969325 11.2785583,7.42969052 11.8328573,7.42969052 C12.3871563,7.42969052 12.837806,7.86920436 12.837806,8.41040771 C12.8373052,8.7927212 12.3405892,10.4422425 11.8328573,11.9866521 Z M11.8328573,6.45190668 C10.7267628,6.45190668 9.82646505,7.33044546 9.82646505,8.41040771 C9.82646505,8.80689906 10.1048664,9.82526093 10.4268305,10.8739341 C8.83854094,9.18970143 6.18471539,7.14613321 2.29110266,6.49248471 C5.2914277,5.20523228 8.56714972,4.52567251 11.8674071,4.52567251 C15.1977078,4.52567251 18.3853028,5.18909885 21.3741112,6.47684017 C17.4835028,7.13293312 14.8291766,9.18041249 13.2403863,10.8685563 C13.5618497,9.82183869 13.8392496,8.80641017 13.8392496,8.41040771 C13.8387488,7.32995657 12.9389518,6.45190668 11.8328573,6.45190668 Z M11.8353609,0.977783842 C15.6498596,0.977783842 19.265071,2.68841667 21.6570191,5.52985652 C18.5755771,4.22060395 15.2933457,3.54691089 11.8669064,3.54691089 C8.46700536,3.54691089 5.09214042,4.24064852 1.99417463,5.55332333 C4.3866234,2.69819451 8.0108478,0.977783842 11.8353609,0.977783842 Z M3.06922434,7.65898083 C7.94725613,8.86556609 10.5570182,12.4603884 11.2189724,13.4939059 C10.3972879,14.4174227 9.77689359,15.4729404 9.37831904,16.6091252 C8.45098226,15.7344976 7.35239863,15.0485822 6.14916414,14.5958683 L5.14872198,10.915001 C4.79871744,9.62530414 4.06766361,8.50525275 3.06922434,7.65898083 Z M6.64988594,16.4365464 L6.4766362,15.7985424 C7.45154155,16.2649453 8.33130975,16.9097938 9.06687008,17.6973986 C8.95420767,18.2156241 8.88911384,18.745094 8.86708208,19.2814085 C7.80054464,18.668338 6.98336666,17.6646429 6.64988594,16.4365464 Z M9.85100042,19.7111445 C9.85100042,19.6954999 9.84999898,19.6803443 9.84999898,19.6651886 C9.84999898,17.6861541 10.5505088,15.7951202 11.833358,14.2824886 C13.1152058,15.7956091 13.8152149,17.686643 13.8152149,19.6651886 C13.8152149,19.6808332 13.8142135,19.6959888 13.8142135,19.7116334 C13.3520473,19.8553676 12.8628421,19.935057 12.3586152,19.935057 L11.3065987,19.935057 C10.8018711,19.935057 10.3131666,19.8548787 9.85100042,19.7111445 Z M22.1061665,29.5916502 C21.205368,29.9426746 20.2164424,29.9006299 19.3206511,29.4767606 L19.3126396,29.4728494 C17.5751349,28.6495554 16.9332096,26.8049662 17.6201999,24.8420652 C17.7989576,25.0801555 17.9461698,25.3422016 18.0473156,25.6257589 C18.138447,25.8799827 18.4228569,26.014428 18.683733,25.9269163 C19.4528417,25.6673147 20.2800341,25.7147372 21.0115886,26.0613616 C21.729123,26.4006526 22.2739083,26.9902563 22.5468017,27.7216386 C22.6204078,27.9191509 22.8121842,28.0428406 23.0169795,28.0428406 C23.0690545,28.0428406 23.1216303,28.0350183 23.1737054,28.018396 C23.478645,27.9201287 23.7961026,27.8761284 24.1140609,27.8741729 C23.5873016,28.6916002 22.9033156,29.2821816 22.1061665,29.5916502 Z M24.6162849,26.9198558 C24.1796555,26.8685222 23.7375181,26.8856334 23.3073981,26.9736339 C22.909825,26.1938513 22.2628924,25.566603 21.4497202,25.1818451 C20.6205249,24.7892648 19.7001983,24.6841531 18.8119178,24.8767765 C18.6241471,24.4983742 18.3762898,24.1522387 18.0783603,23.8515701 C19.8694422,20.6253724 23.7054719,18.4786479 25.1330298,17.7668213 C25.4444788,19.297053 26.091912,23.5474794 24.6162849,26.9198558 Z" id="Shape"></path>
                    </g>
                </g>
            </g>
        </g>
    </g>
</svg>