<?xml version="1.0" encoding="UTF-8"?>
<svg width="34px" height="47px" viewBox="0 0 34 47" version="1.1" xmlns="http://www.w3.org/2000/svg" xmlns:xlink="http://www.w3.org/1999/xlink">
    <!-- Generator: Sketch 63.1 (92452) - https://sketch.com -->
    <title>noun_flowers_3424605</title>
    <desc>Created with Sketch.</desc>
    <g id="Page-1" stroke="none" stroke-width="1" fill="none" fill-rule="evenodd" opacity="0.800000012">
        <g id="Current-design" transform="translate(-702.000000, -2470.000000)" fill="#D78E7D" fill-rule="nonzero">
            <g id="Group-29" transform="translate(-5.000000, 2301.000000)">
                <g id="Group-8-Copy" transform="translate(229.000000, 169.000000)">
                    <g id="noun_flowers_3424605" transform="translate(478.000000, 0.000000)">
                        <path d="M28.2456233,3.63206653 C24.5046934,0.294739811 19.2064841,-0.849501469 14.4146134,0.645927011 C14.364294,0.660603491 14.3160713,0.683142371 14.2720419,0.713019491 C14.0550396,0.857687651 13.9769398,1.13968573 14.0896342,1.37503357 C14.0954,1.38708925 14.1011657,1.39862077 14.1079798,1.40962813 L14.383688,2.00035645 C15.1678313,3.67609597 15.13743,5.58403837 14.3003465,7.23409405 L11.5322576,12.6979379 C10.3088681,15.1075014 10.8309315,18.0344109 12.7881449,19.8810265 C7.90978781,25.3941414 5.11601501,33.0547398 5.11601501,40.9973363 L5.11601501,46.8993779 L6.16433501,46.8993779 L6.16433501,40.9973363 C6.16433501,33.3115782 8.86008989,25.9067699 13.5659984,20.5839251 L13.7305846,20.7312141 C14.8769225,21.7538502 16.3288457,22.2759136 17.7886313,22.2759136 C18.9512182,22.2759136 20.1185225,21.9446445 21.1406345,21.2710989 L26.2532912,17.8991776 C27.7995632,16.8807347 29.6923049,16.6343795 31.4456201,17.2230112 L32.0981993,17.4410617 C32.1312214,17.4520691 32.175775,17.4599315 32.2108937,17.4636006 C32.4766428,17.4940019 32.7287638,17.3084493 32.7806556,17.0411277 C33.7257161,12.1093062 31.9881257,6.97148989 28.2456233,3.63206653 Z M15.235448,7.70793469 C15.8895996,6.41902525 16.1149884,4.99697917 15.9289116,3.60952765 C18.8972297,7.98573949 18.3599657,12.7078969 18.1377219,14.0004755 C16.8367568,14.1666342 15.5986908,14.5791481 14.4764643,15.2102368 C14.3758256,13.8641939 14.0073411,12.5496006 13.3909289,11.3492742 L15.235448,7.70793469 Z M12.467359,13.1717785 L12.7876208,12.5396416 C13.2163836,13.5921549 13.4438691,14.7211955 13.4559248,15.8638643 C12.9978089,16.1998509 12.5685219,16.5788185 12.1680636,16.9929049 C11.7723228,15.7590323 11.8509468,14.3862573 12.467359,13.1717785 Z M15.7260617,20.7846784 C15.2621801,20.577111 14.822934,20.3003545 14.4287657,19.9486432 L13.607407,19.2163917 C13.2137628,18.8646803 12.8887836,18.4600288 12.6298486,18.0234035 C12.640856,18.0108237 12.650815,17.9982438 12.6623465,17.985664 C14.0744336,16.4021766 15.9713686,15.3769197 18.052808,15.060327 C17.9752323,17.1643053 17.1722192,19.1655481 15.7601321,20.7485113 C15.7486006,20.760567 15.7370691,20.7720985 15.7260617,20.7846784 Z M20.5635344,20.3957517 C19.4271555,21.1458246 18.0722019,21.3796 16.8011139,21.1269549 C17.1669776,20.681943 17.4940534,20.213344 17.7760515,19.7201094 C18.9124304,19.6032217 20.0603408,19.7001913 21.1542627,20.0063008 L20.5635344,20.3957517 Z M25.6767152,17.0238304 L22.269151,19.2709043 C21.0069737,18.7954912 19.65831,18.5774406 18.3096464,18.6314291 C18.8091708,17.4442067 19.0780649,16.1678771 19.0953622,14.8569529 C20.3507254,14.4905651 24.9628092,13.4270445 29.6393648,15.8696301 C28.2503408,15.8481395 26.8749449,16.2344454 25.6767152,17.0238304 Z M21.6862851,13.3028185 C22.6806166,12.6921721 23.6162422,12.07576 23.8977161,11.7602157 C24.2714422,11.341936 24.4590915,10.8030995 24.4276419,10.2422483 C24.395144,9.68244541 24.1477404,9.16772029 23.7289366,8.79451837 C23.3101328,8.42131645 22.7749654,8.23471549 22.2109692,8.26459261 C21.6511664,8.29709053 21.1364412,8.54449405 20.7632393,8.96329789 C20.4644681,9.29771197 19.913576,10.4026413 19.3915126,11.5290611 C19.383126,9.06393661 18.8060259,5.48392381 16.1710736,2.16703933 C19.4250588,3.21955261 22.3886595,4.90892029 24.9895414,7.22937661 C27.5652636,9.52781821 29.6325507,12.3540889 31.0566934,15.4723168 C27.6019548,13.3169709 24.1231049,13.0784781 21.6862851,13.3028185 Z M19.7783427,13.2231462 C20.483862,11.6338931 21.273247,9.96811261 21.5458102,9.66252733 C21.7329353,9.45286333 21.990822,9.32811325 22.2712476,9.31238845 C22.2916899,9.31134013 22.3121321,9.31081597 22.3325744,9.31081597 C22.5904611,9.31081597 22.8368163,9.40411645 23.0307555,9.57761341 C23.2404195,9.76473853 23.3651696,10.0226253 23.3808944,10.3030509 C23.3966192,10.5834765 23.3027945,10.8534189 23.1156694,11.0625587 C22.8431062,11.3686681 21.2774403,12.3415091 19.7783427,13.2231462 Z M31.9671593,14.942391 C30.4843107,11.7303385 28.3457379,8.81915389 25.6882467,6.44837821 C23.0124099,4.06082941 19.9686128,2.31170749 16.6276169,1.21149565 C20.523174,0.606615011 24.5681168,1.75714621 27.5474422,4.41463741 C30.5367267,7.08156349 32.1401321,10.9876038 31.9671593,14.942391 Z" id="Shape"></path>
                        <path d="M2.30232413,17.6344768 C-1.93760611,28.7592486 1.17171101,43.784295 1.89243101,46.8988537 L2.97115229,46.8988537 C2.42969501,44.5731558 -0.928073952,29.0113696 3.29613149,17.9683667 C3.54772829,18.0176377 3.79880093,18.0417491 4.04725277,18.0417491 C5.76125597,18.0417491 7.34998493,16.8959353 8.13203165,14.9460601 C9.79257053,10.8025753 9.34703453,2.44169917 9.32711645,2.08789117 C9.31610909,1.88923453 9.18611741,1.71049597 9.00318557,1.63239613 C8.81186717,1.54957885 8.59067165,1.58836669 8.43866525,1.73146237 C8.18025437,1.97362429 2.08322525,7.71212797 0.422686368,11.8556128 C-0.0847005124,13.1198867 -0.136068192,14.3631942 0.272776608,15.4513504 C0.638116128,16.4236672 1.35569117,17.1878925 2.30232413,17.6344768 Z M8.33540573,3.95442493 C8.37629021,6.66013885 8.28456221,11.7465875 7.15866653,14.5560851 C7.06222109,14.7961504 6.95162333,15.0199667 6.82896989,15.2280582 C4.45138013,12.1297485 6.88872413,6.63026173 8.33540573,3.95442493 Z M1.39605149,12.246112 C2.29393757,10.005328 4.67100317,7.17014653 6.56007581,5.13430909 C5.08089629,8.32906429 3.62006237,13.0999686 6.17114909,16.0813907 C5.28531869,16.9520205 4.10019293,17.2392601 2.94179933,16.7759027 L2.93446109,16.7727577 C2.93079197,16.7711853 2.92659869,16.7696128 2.92345373,16.7680403 C2.13721373,16.452496 1.54438877,15.8544294 1.25400413,15.0823417 C0.938983968,14.2442099 0.987730848,13.2629824 1.39605149,12.246112 Z" id="Shape"></path>
                        <path d="M33.4038819,24.3982374 C33.3378377,24.2126848 33.1732515,24.0800723 32.9777398,24.0543885 C32.6265526,24.0093107 24.3191408,22.9609907 20.0666307,24.3169926 C18.7688105,24.731079 17.7770998,25.4832486 17.197903,26.4906841 C16.647535,27.4488486 16.5285507,28.5658336 16.8577232,29.6414099 C14.9990518,30.5419168 8.50785437,34.5706105 8.23004957,46.8988537 L9.27836957,46.8988537 C9.55093277,35.1686771 15.6201814,31.4088774 17.2880585,30.5974777 C17.6932342,31.260016 18.275576,31.7878451 18.993151,32.1191142 C19.5644854,32.3822425 20.1913808,32.514855 20.8523465,32.514855 C21.4116252,32.514855 21.9955395,32.4194579 22.5899369,32.2302361 C26.842447,30.8731859 33.0076169,25.2075405 33.2681244,24.966951 C33.4227516,24.8243795 33.4746435,24.5958457 33.4038819,24.3982374 Z M20.4618473,31.443472 C20.0975561,31.4052083 19.7516105,31.3140045 19.4323971,31.1667155 C18.6907107,30.824439 18.1398185,30.1980678 17.8698761,29.37304 L17.8704003,29.37304 C17.6125136,28.5658336 17.6969033,27.7277017 18.1073206,27.0127475 C18.5539049,26.2359424 19.3411932,25.648359 20.38532,25.3160416 C22.685334,24.5822176 26.3859036,24.6105222 29.1592342,24.7719635 C25.7500976,25.6651321 21.1343446,27.5762195 20.4618473,31.443472 Z M22.272296,31.230663 C22.0254166,31.309287 21.7827305,31.3664205 21.5447619,31.4057325 C22.4237782,27.6013792 28.2099804,25.9796281 31.19612,25.3909965 C29.1345987,27.14536 25.1546518,30.3112864 22.272296,31.230663 Z" id="Shape"></path>
                    </g>
                </g>
            </g>
        </g>
    </g>
</svg>